<svg xmlns="http://www.w3.org/2000/svg" xmlns:xlink="http://www.w3.org/1999/xlink" width="289.952" height="81" viewBox="0 0 289.952 81">
  <defs>
    <radialGradient id="radial-gradient" cx="0.5" cy="0.5" r="0.5" gradientUnits="objectBoundingBox">
      <stop offset="0" stop-color="#6d7274"/>
      <stop offset="1" stop-color="#656c6e"/>
    </radialGradient>
  </defs>
  <g id="business-logo" transform="translate(-683 -269)">
    <path id="Path_5" data-name="Path 5" d="M102.908-62.518,71.449-5.643A10.342,10.342,0,0,1,61.807,0H56.253V-39.5L34.392-5.465A11.522,11.522,0,0,1,24.039,0h-6.31l4.666-51.321H1.733l6.843-11.2h19.64a11.242,11.242,0,0,1,6.176,1.644q3.466,2.266,3.466,7.065a12.552,12.552,0,0,1-.089,1.466l-3.2,30.126L55.764-55.853a18,18,0,0,1,4.043-4.888,11.5,11.5,0,0,1,6.8-1.777H70.96v39.413L92.289-62.518Z" transform="translate(681.267 341)" fill="#d92323"/>
    <g id="Group_3" data-name="Group 3">
      <g id="Group_1" data-name="Group 1">
        <path id="Path_4" data-name="Path 4" d="M90.566,0h162.28L210.754,81H48.645Z" transform="translate(714.675 269)" fill="url(#radial-gradient)"/>
        <path id="Path_6" data-name="Path 6" d="M110.685-80.965,71.449-5.643A10.342,10.342,0,0,1,61.807,0H56.253c-24.2-1.822-.592,3.395,14.708-23.105l29.725-57.859Z" transform="translate(862.267 350)" fill="#656c6e"/>
        <path id="Path_7" data-name="Path 7" d="M45.857,0,85.093-75.322a10.342,10.342,0,0,1,9.642-5.643h5.554c24.2,1.822.592-3.395-14.708,23.105L55.857,0Z" transform="translate(710.815 350)" fill="#656c6e"/>
      </g>
      <g id="Group_2" data-name="Group 2">
        <path id="Path_8" data-name="Path 8" d="M-101.868-18.2h-2.808l-1.508,13-2.34-13h-2.7l-2.34,13-1.508-13h-2.964L-115.18,0h2.938l2.34-12.48L-107.562,0h2.834Zm3.146,14.82h-2.964V0h2.964Zm14.534.676h-4.654V-18.2h-3.016V0h7.67ZM-75.946,0h3.068L-76.31-18.2h-3.8L-83.486,0h2.912l.65-4.056H-76.6Zm-3.588-6.552,1.274-8.086,1.274,8.086ZM-56.966-18.2h-2.808l-1.508,13-2.34-13h-2.7l-2.34,13-1.508-13h-2.964L-70.278,0h2.938L-65-12.48-62.66,0h2.834ZM-45.318,0l-2.6-7.722a3.34,3.34,0,0,0,1.976-3.38v-3.25c0-2.756-1.82-3.848-4.576-3.848h-4.706V0h3.016V-7.254H-50.7L-48.386,0Zm-6.89-15.548h1.586c.988,0,1.664.364,1.664,1.664v2.366c0,1.3-.676,1.664-1.664,1.664h-1.586ZM-35.256,0V-2.652H-40.3V-7.9h4.16v-2.652H-40.3v-4.992h4.966V-18.2h-7.982V0Zm5.07,0V-11.83L-26.208,0h2.86V-18.2H-26.1V-6.942L-29.926-18.2h-3.016V0Zm18.72-7.41h-3.016v3.3c0,1.274-.624,1.664-1.586,1.664s-1.586-.39-1.586-1.664v-9.984c0-1.274.624-1.664,1.586-1.664s1.586.39,1.586,1.664v2.86h3.016V-14.56c0-2.7-1.82-3.848-4.576-3.848h-.052c-2.756,0-4.576,1.144-4.576,3.848V-3.64c0,2.834,1.82,3.848,4.576,3.848h.052c2.756,0,4.576-1.04,4.576-3.848ZM-.832,0V-2.652H-5.876V-7.9h4.16v-2.652h-4.16v-4.992H-.91V-18.2H-8.892V0Z" transform="translate(936.675 306)" fill="#fff"/>
        <path id="Path_9" data-name="Path 9" d="M-57.122-14.638V0h1.4V-18.2h-1.456L-61.8-5.59-66.378-18.2h-1.378V0h1.326V-14.638l4.264,11.57h.806ZM-41.938,0l-3.12-8.06c1.664-.442,2.5-1.664,2.5-3.64v-2.652c0-2.548-1.4-3.848-4.16-3.848h-4.29V0h1.4V-7.852h3.172L-43.446,0Zm-4.888-9.126h-2.782V-16.9h2.782c2.054,0,2.86.858,2.86,3.016v1.742C-43.966-10.01-44.772-9.126-46.826-9.126ZM-28.912,0l-4.446-11.414,4.134-6.786h-1.56l-5.824,9.828V-18.2h-1.4V0h1.4V-6.11l2.366-3.874L-30.42,0Zm10.27-18.2H-26.91v1.3h3.432V0h1.4V-16.9h3.432ZM-6.864-9.022h-4.368v1.274h2.964v3.64c0,2.158-.806,3.016-2.86,3.016s-2.86-.858-2.86-3.016v-9.984c0-2.158.806-3.016,2.86-3.016s2.86.858,2.86,3.016v1.924h1.4V-14.56c0-2.5-1.4-3.848-4.16-3.848h-.208c-2.756,0-4.16,1.352-4.16,3.848V-3.64c0,2.626,1.4,3.848,4.16,3.848h.208c2.756,0,4.16-1.248,4.16-3.848ZM-1.248-1.9H-2.782V0h1.534Z" transform="translate(870 334.5)" fill="#fff" opacity="0.73"/>
      </g>
    </g>
  </g>
</svg>
