<svg xmlns="http://www.w3.org/2000/svg" width="425.223" height="464.627" viewBox="0 0 425.223 464.627">
  <g id="qosmic-inventory-logo" transform="translate(-151.771 1166.052)">
    <path id="Path_56" data-name="Path 56" d="M394.164,465.627a10.876,10.876,0,0,1-2.15-.158,35.265,35.265,0,0,0-3.65-2.847q-34.04-19.718-68.1-39.4a2.684,2.684,0,0,0-3.12.2q-27.128,15.733-54.264,31.452c-6.126,3.555-12.218,7.171-18.326,10.758a2.4,2.4,0,0,1-.854-.139c-14.008-8.079-27.784-16.018-41.553-23.969q-29.882-17.258-59.754-34.531-28.471-16.458-56.939-32.925c-13.36-7.727-26.686-15.514-40.111-23.126-2-1.134-2.524-2.365-2.519-4.527q.118-48.655.079-97.312.008-64.8-.05-129.6a3.731,3.731,0,0,1,2.256-3.755c7.075-3.954,14.1-8,21.114-12.057q30.587-17.676,61.157-35.382Q159.76,49.6,192.157,30.917C207,22.345,221.821,13.753,236.778,5.166a.743.743,0,0,0,.4-.4c-.044-.04.035.048.2.022,2.193-1.28,4.222-2.535,6.252-3.789a1.851,1.851,0,0,1,.767.135c.311.193.474.25.751.418,3,1.752,5.891,3.378,8.764,5.038q22.96,13.266,45.913,26.544,21.46,12.39,42.936,24.753,25.67,14.827,51.324,29.683,24.778,14.3,49.6,28.537a2.9,2.9,0,0,1,1.675,2.91c-.038,14.319.02,28.639.016,42.958q-.013,44-.054,88.005,0,48.531.1,97.062a3.571,3.571,0,0,1-2.073,3.62c-12.339,7.042-24.617,14.191-36.958,21.228a3.183,3.183,0,0,1-2.607.026c-2.743-1.413-5.371-3.047-8.047-4.591q-28.489-16.437-56.979-32.874c-2.751-1.588-5.473-3.226-8.39-4.948.579-.383.825-.566,1.088-.718,12.444-7.168,24.877-14.357,37.355-21.463a2.8,2.8,0,0,0,1.7-2.855c-.088-5.109-.035-10.22-.035-15.331q0-63.07.046-126.139a3.9,3.9,0,0,0-2.255-3.995c-6.076-3.367-12.027-6.959-18.046-10.43Q315.9,128.79,281.58,109.023q-17.85-10.3-35.671-20.648c-.97-.561-1.784-1.115-3.126-.334C225.7,97.98,208.558,107.817,191.445,117.7q-22.956,13.262-45.886,26.57c-8.756,5.068-17.505,10.148-26.291,15.163a2.7,2.7,0,0,0-1.541,2.743c.069,6.193.026,12.387.025,18.58q-.018,61.78-.075,123.56a3,3,0,0,0,1.786,3.056c6.4,3.581,12.746,7.264,19.1,10.93q28.781,16.609,57.554,33.231,23.27,13.429,46.534,26.869a2.5,2.5,0,0,0,2.91.007c8.6-5.009,17.253-9.943,25.876-14.922,14.577-8.418,29.2-16.761,43.67-25.355,2.9-1.724,5.032-1.469,7.762.123q32.217,18.78,64.549,37.362,35,20.208,70.013,40.4c3.475,2.007,6.908,4.087,10.619,6.287-7.4,4.291-14.462,8.4-21.541,12.49q-22.265,12.851-44.531,25.7C399.286,462.059,396.764,463.91,394.164,465.627Z" transform="translate(108.947 -1167.052)" fill="#1b2e45"/>
    <g id="Group_26" data-name="Group 26" transform="translate(253.885 -1047.837)">
      <path id="Path_63" data-name="Path 63" d="M263.344,312.32c5.678-3.43,11.315-6.929,17.043-10.272,7.455-4.351,14.991-8.563,22.478-12.859q15.761-9.044,31.5-18.124c8.686-5,17.384-9.99,26.031-15.062a3.031,3.031,0,0,1,3.562.013c13.411,7.77,26.888,15.425,40.313,23.171,8.547,4.932,17.017,10,25.56,14.936,6.883,3.979,13.854,7.806,20.727,11.8,3.579,2.081,7.032,4.379,10.366,6.771-4.268,2.518-8.36,4.843-12.451,7.17-7.31,4.157-14.644,8.274-21.923,12.485-8.6,4.977-17.143,10.065-25.743,15.051q-13.829,8.017-27.724,15.918c-3.61,2.049-7.325,3.909-11.152,5.809-.849-.4-1.558-.713-2.227-1.1Q335.8,354.238,311.9,340.433,287.611,326.392,263.344,312.32Z" transform="translate(-262.999 -255.43)" fill="#ffcb0a"/>
      <path id="Path_64" data-name="Path 64" d="M262.838,378.307c16.292,9.17,32.47,18.55,48.661,27.911q23.893,13.815,47.808,27.594a24.971,24.971,0,0,1,2.241,1.3,45.144,45.144,0,0,1,.217,4.891q0,52.767.022,105.533a34.782,34.782,0,0,0,.427,3.884,26.968,26.968,0,0,1-3.929-1.528c-14.387-8.289-28.728-16.659-43.112-24.955q-24.692-14.24-49.45-28.364c-2.115-1.205-3.136-2.434-3.117-5.152.138-20.033.02-40.068,0-60.1q-.021-24.249.005-48.5A16.408,16.408,0,0,1,262.838,378.307Z" transform="translate(-262.601 -321.215)" fill="#ef671e"/>
      <path id="Path_65" data-name="Path 65" d="M476.564,549.789a16.985,16.985,0,0,1-.58-3.865q-.036-52.767-.022-105.533c0-1.546-.028-3.092-.057-4.844,3.654-2.153,7.369-4.013,10.979-6.062q13.9-7.888,27.724-15.918c8.6-4.985,17.139-10.074,25.743-15.051,7.279-4.211,14.613-8.327,21.923-12.485,4.091-2.327,8.183-4.652,12.435-7.009.235,4.064.374,8.159.373,12.254q-.008,34.815-.067,69.63c-.007,10.213.052,20.426-.024,30.638a3.177,3.177,0,0,1-1.313,2.321c-12.15,7.067-24.365,14.022-36.541,21.046-10.772,6.214-21.5,12.5-32.27,18.723C495.5,539.041,486.1,544.393,476.564,549.789Z" transform="translate(-376.798 -321.598)" fill="#ff9801"/>
    </g>
  </g>
</svg>
