<svg xmlns="http://www.w3.org/2000/svg" width="300" height="344.489" viewBox="0 0 300 344.489">
  <g id="brand-logo" transform="translate(-78.258 1190.52)">
    <g id="qosmic-inventory-logo" transform="translate(95.824 -1190.52)">
      <path id="Path_56" data-name="Path 56" d="M265.915,304.023a6.722,6.722,0,0,1-1.365-.1,22.481,22.481,0,0,0-2.317-1.857q-21.614-12.86-43.241-25.7a1.668,1.668,0,0,0-1.981.128q-17.226,10.261-34.456,20.513c-3.89,2.319-7.758,4.677-11.636,7.017a1.485,1.485,0,0,1-.542-.091c-8.894-5.269-17.642-10.446-26.385-15.632q-18.974-11.255-37.942-22.521Q87.97,255.045,69.894,244.306c-8.483-5.04-16.945-10.118-25.47-15.083a2.882,2.882,0,0,1-1.6-2.953q.075-31.732.05-63.465.005-42.26-.031-84.52a2.441,2.441,0,0,1,1.433-2.449c4.492-2.579,8.951-5.218,13.407-7.863Q77.1,56.445,96.516,44.9q20.559-12.2,41.131-24.386c9.422-5.59,18.836-11.194,28.333-16.794a.479.479,0,0,0,.252-.26c-.028-.026.022.031.126.014,1.392-.835,2.681-1.653,3.97-2.471a1.148,1.148,0,0,1,.487.088c.2.126.3.163.477.273,1.9,1.143,3.74,2.2,5.565,3.286q14.579,8.652,29.153,17.312,13.626,8.081,27.263,16.144,16.3,9.67,32.589,19.359,15.733,9.329,31.492,18.612a1.9,1.9,0,0,1,1.064,1.9c-.024,9.339.012,18.678.01,28.017q-.008,28.7-.035,57.4,0,31.652.061,63.3a2.34,2.34,0,0,1-1.316,2.361c-7.835,4.593-15.631,9.255-23.467,13.844a1.973,1.973,0,0,1-1.655.017c-1.742-.922-3.41-1.987-5.11-2.994q-18.09-10.72-36.18-21.44c-1.747-1.036-3.475-2.1-5.327-3.227.368-.25.524-.369.691-.468,7.9-4.675,15.8-9.363,23.72-14a1.83,1.83,0,0,0,1.079-1.862c-.056-3.332-.022-6.666-.022-10q0-41.133.029-82.266a2.553,2.553,0,0,0-1.432-2.605c-3.858-2.2-7.637-4.538-11.458-6.8q-21.785-12.9-43.576-25.8-11.334-6.717-22.65-13.467c-.616-.366-1.133-.727-1.985-.218-10.847,6.482-21.732,12.9-32.6,19.346q-14.576,8.649-29.136,17.328c-5.56,3.305-11.115,6.618-16.694,9.889a1.768,1.768,0,0,0-.979,1.789c.044,4.039.017,8.079.016,12.118q-.012,40.292-.048,80.584a1.966,1.966,0,0,0,1.134,1.993c4.064,2.336,8.093,4.737,12.127,7.128q18.275,10.832,36.545,21.673,14.776,8.758,29.548,17.524a1.55,1.55,0,0,0,1.847,0c5.464-3.267,10.955-6.485,16.431-9.732,9.256-5.49,18.54-10.932,27.729-16.536a4.149,4.149,0,0,1,4.929.08Q241.1,233.2,261.63,245.322q22.225,13.18,44.456,26.348c2.206,1.309,4.386,2.666,6.743,4.1-4.7,2.8-9.183,5.481-13.678,8.146q-14.138,8.381-28.276,16.762C269.167,301.7,267.566,302.9,265.915,304.023Z" transform="translate(-42.825 -1)" fill="#1b2e45"/>
      <g id="Group_26" data-name="Group 26" transform="translate(63.402 77.224)">
        <path id="Path_63" data-name="Path 63" d="M263.344,292.47c3.7-2.233,7.367-4.512,11.1-6.688,4.854-2.833,9.76-5.575,14.635-8.373q10.261-5.888,20.51-11.8c5.655-3.258,11.318-6.5,16.948-9.806a1.973,1.973,0,0,1,2.319.008c8.731,5.059,17.506,10.043,26.247,15.086,5.565,3.211,11.079,6.509,16.642,9.725,4.481,2.591,9.02,5.082,13.5,7.683,2.33,1.355,4.578,2.851,6.749,4.408-2.779,1.639-5.443,3.153-8.106,4.668-4.759,2.707-9.534,5.387-14.274,8.129-5.6,3.24-11.162,6.553-16.761,9.8q-9,5.22-18.051,10.364c-2.35,1.334-4.769,2.545-7.261,3.782-.553-.257-1.015-.464-1.45-.715q-15.566-8.978-31.127-17.966Q279.144,301.632,263.344,292.47Z" transform="translate(-263.119 -255.43)" fill="#ffcb0a"/>
        <path id="Path_64" data-name="Path 64" d="M262.755,378.307c10.607,5.97,21.141,12.078,31.682,18.172q15.556,8.994,31.127,17.966a16.236,16.236,0,0,1,1.459.849,29.379,29.379,0,0,1,.141,3.184q0,34.355.015,68.711a22.64,22.64,0,0,0,.278,2.529,17.571,17.571,0,0,1-2.558-.995c-9.367-5.4-18.7-10.847-28.069-16.247q-16.076-9.271-32.2-18.467a3.334,3.334,0,0,1-2.03-3.355c.09-13.043.013-26.087,0-39.131q-.014-15.788,0-31.577A10.671,10.671,0,0,1,262.755,378.307Z" transform="translate(-262.601 -341.135)" fill="#ef671e"/>
        <path id="Path_65" data-name="Path 65" d="M476.334,490.206a11.059,11.059,0,0,1-.378-2.516q-.024-34.355-.014-68.711c0-1.006-.018-2.013-.037-3.154,2.379-1.4,4.8-2.613,7.148-3.946q9.051-5.136,18.051-10.364c5.6-3.246,11.159-6.559,16.761-9.8,4.739-2.742,9.514-5.422,14.274-8.129,2.664-1.515,5.328-3.029,8.1-4.563.153,2.646.244,5.312.243,7.978q0,22.667-.043,45.335c-.005,6.649.033,13.3-.016,19.948a2.069,2.069,0,0,1-.855,1.511c-7.911,4.6-15.864,9.13-23.791,13.7-7.013,4.046-14,8.142-21.01,12.19C488.663,483.208,482.543,486.692,476.334,490.206Z" transform="translate(-411.378 -341.635)" fill="#ff9801"/>
      </g>
    </g>
    <g id="Group_35" data-name="Group 35" transform="translate(78.258 -862.125)">
      <path id="Path_92" data-name="Path 92" d="M16.372-3.853a4.741,4.741,0,0,0,.7-1.5,6.611,6.611,0,0,0,.2-1.651,5.587,5.587,0,0,0-.461-2.278,5.492,5.492,0,0,0-1.256-1.8,5.8,5.8,0,0,0-1.884-1.181,6.286,6.286,0,0,0-2.324-.428,6.051,6.051,0,0,0-2.543.512A6.045,6.045,0,0,0,6.91-10.855,5.761,5.761,0,0,0,5.727-9.027,5.367,5.367,0,0,0,5.319-7.01a5.372,5.372,0,0,0,.492,2.278A6.137,6.137,0,0,0,7.14-2.861,6.281,6.281,0,0,0,9.066-1.6a5.8,5.8,0,0,0,2.282.46,5.826,5.826,0,0,0,1.758-.251,5.8,5.8,0,0,0,1.507-.732L11.934-5.087l2.051-1.379ZM16.246-.3A10.624,10.624,0,0,1,13.975.734a8.548,8.548,0,0,1-2.627.387A8.583,8.583,0,0,1,7.653.358,8.884,8.884,0,0,1,4.921-1.586a8.463,8.463,0,0,1-1.7-2.623,7.416,7.416,0,0,1-.586-2.8,7.106,7.106,0,0,1,.722-3.208,8.094,8.094,0,0,1,1.926-2.508,8.7,8.7,0,0,1,2.774-1.63,9.484,9.484,0,0,1,3.286-.575,11.12,11.12,0,0,1,1.947.167,8.3,8.3,0,0,1,1.821.543,8.376,8.376,0,0,1,2.156,1.348A8.061,8.061,0,0,1,18.8-11.106a7.8,7.8,0,0,1,.911,2.017,7.5,7.5,0,0,1,.3,2.08,8.236,8.236,0,0,1-.429,2.665,6.947,6.947,0,0,1-1.5,2.435L20.726.912H17.376ZM35.251,1.121A8.583,8.583,0,0,1,31.556.358a8.884,8.884,0,0,1-2.732-1.944,8.463,8.463,0,0,1-1.7-2.623,7.416,7.416,0,0,1-.586-2.8,7.106,7.106,0,0,1,.722-3.208,8.094,8.094,0,0,1,1.926-2.508,8.7,8.7,0,0,1,2.774-1.63,9.484,9.484,0,0,1,3.286-.575,11.12,11.12,0,0,1,1.947.167,8.3,8.3,0,0,1,1.821.543,8.219,8.219,0,0,1,2.156,1.359A8.394,8.394,0,0,1,42.7-11.1a7.636,7.636,0,0,1,.911,2.007,7.5,7.5,0,0,1,.3,2.08,7.351,7.351,0,0,1-.722,3.261A8.433,8.433,0,0,1,41.28-1.178,8.728,8.728,0,0,1,38.516.515,8.989,8.989,0,0,1,35.251,1.121Zm0-2.257a5.9,5.9,0,0,0,2.292-.449,5.875,5.875,0,0,0,1.884-1.244A5.974,5.974,0,0,0,40.7-4.69a5.676,5.676,0,0,0,.471-2.32,5.531,5.531,0,0,0-.471-2.3,5.548,5.548,0,0,0-1.277-1.8,5.8,5.8,0,0,0-1.884-1.17,6.284,6.284,0,0,0-2.292-.418,6.051,6.051,0,0,0-2.543.512,6.045,6.045,0,0,0-1.894,1.327,5.761,5.761,0,0,0-1.183,1.829,5.367,5.367,0,0,0-.408,2.017,5.372,5.372,0,0,0,.492,2.278,6.137,6.137,0,0,0,1.329,1.871A6.281,6.281,0,0,0,32.969-1.6,5.8,5.8,0,0,0,35.251-1.136ZM62.943-13.761l.23.063a.06.06,0,0,1-.042-.021.367.367,0,0,1,.1.042q.167.042.23.063l.272.084L62.8-11.169l-.607-.314a11.979,11.979,0,0,0-1.245-.523,8.316,8.316,0,0,0-1.2-.324,11.827,11.827,0,0,0-1.266-.167q-.659-.052-1.434-.052a12.377,12.377,0,0,0-1.664.115,6.628,6.628,0,0,0-1.539.387,3.266,3.266,0,0,0-1.13.711,1.5,1.5,0,0,0-.44,1.108,1.222,1.222,0,0,0,.314.888,1.978,1.978,0,0,0,.879.491,6,6,0,0,0,1.382.293q.8.084,1.758.167.775.042,1.643.136t1.737.272a9.984,9.984,0,0,1,1.664.491,5,5,0,0,1,1.4.826,3.915,3.915,0,0,1,.973,1.233,3.817,3.817,0,0,1,.366,1.745,3.393,3.393,0,0,1-.712,2.174A5.551,5.551,0,0,1,61.823-.029a9.493,9.493,0,0,1-2.554.857,14.879,14.879,0,0,1-2.815.272q-.754,0-1.413-.052A12.73,12.73,0,0,1,53.754.881Q53.126.766,52.508.6T51.2.18q-.461-.167-.9-.345t-.9-.345l-.293-.1,1.214-2.195.335.188a1.264,1.264,0,0,0,.335.146q.1.042.2.084t.2.084a12.568,12.568,0,0,0,5.066,1.066,11.722,11.722,0,0,0,1.727-.136,7.75,7.75,0,0,0,1.685-.439,4.2,4.2,0,0,0,1.287-.763,1.436,1.436,0,0,0,.513-1.108,1.476,1.476,0,0,0-.262-.9,2.258,2.258,0,0,0-.659-.6,3.322,3.322,0,0,0-.869-.366q-.471-.125-.911-.209a7.606,7.606,0,0,0-.984-.146q-.5-.042-.984-.1t-.984-.1q-.5-.042-1-.1a19.215,19.215,0,0,1-1.915-.314,6.434,6.434,0,0,1-1.769-.648,3.744,3.744,0,0,1-1.3-1.17,3.254,3.254,0,0,1-.5-1.881,3.415,3.415,0,0,1,.659-2.111A5.127,5.127,0,0,1,51.9-13.782a8.52,8.52,0,0,1,2.407-.826,14.346,14.346,0,0,1,2.732-.261,19.4,19.4,0,0,1,2.763.2,10.3,10.3,0,0,1,2.638.742.919.919,0,0,0,.157.063q.073.021.178.063l.126.042Zm16.1,12.144L73.763-9.643V.912h-2.7V-13.677a1.232,1.232,0,0,1,.4-.867,1.507,1.507,0,0,1,1.13-.408,1.675,1.675,0,0,1,.8.178,1.217,1.217,0,0,1,.5.47l5.149,7.9,5.17-7.9a1.354,1.354,0,0,1,.534-.47,1.739,1.739,0,0,1,.806-.178,1.459,1.459,0,0,1,1.151.387,1.317,1.317,0,0,1,.335.888V.912H84.313V-9.643ZM95.887.912h-2.7V-14.68h2.7Zm18.628-10.994a10.361,10.361,0,0,0-.932-1.045,5.164,5.164,0,0,0-1.089-.815,5.577,5.577,0,0,0-1.308-.523,6.228,6.228,0,0,0-1.591-.188,6.159,6.159,0,0,0-2.543.5,6.034,6.034,0,0,0-1.9,1.317,5.707,5.707,0,0,0-1.193,1.818,5.289,5.289,0,0,0-.408,2.007,5.406,5.406,0,0,0,.419,2.038,6.133,6.133,0,0,0,1.2,1.881,6.34,6.34,0,0,0,1.9,1.39,5.7,5.7,0,0,0,2.522.543,7.679,7.679,0,0,0,1.8-.188,5.054,5.054,0,0,0,1.392-.554,5.344,5.344,0,0,0,1.13-.9,9.489,9.489,0,0,0,.973-1.2l.209-.293,2.093,1.568-.481.543a13.462,13.462,0,0,1-1.539,1.5A8,8,0,0,1,113.563.358a7.443,7.443,0,0,1-1.821.6,11.333,11.333,0,0,1-2.146.188,8.855,8.855,0,0,1-3.265-.617,9.148,9.148,0,0,1-2.784-1.7A8.377,8.377,0,0,1,101.6-3.759a7.283,7.283,0,0,1-.733-3.25,7.231,7.231,0,0,1,.314-2.09,7.745,7.745,0,0,1,.932-2,8.073,8.073,0,0,1,1.549-1.745,9.222,9.222,0,0,1,2.167-1.359,7.329,7.329,0,0,1,1.821-.554,11.843,11.843,0,0,1,1.947-.157,9.153,9.153,0,0,1,3.119.512,8.407,8.407,0,0,1,2.554,1.453q.147.125.345.3t.4.376q.2.2.366.4a1.913,1.913,0,0,1,.251.366l.084.167L114.746-9.79ZM135.528.912h-2.7V-14.68h2.7Zm6.257,0V-13.614a1.359,1.359,0,0,1,.377-.909,1.51,1.51,0,0,1,1.193-.428,1.764,1.764,0,0,1,.806.157,1.629,1.629,0,0,1,.534.449l8.854,10.973V-14.68h2.721V-.238a1.335,1.335,0,0,1-.094.491,1.276,1.276,0,0,1-.293.439,1.549,1.549,0,0,1-.492.324,1.747,1.747,0,0,1-.691.125,1.46,1.46,0,0,1-.8-.188,2.65,2.65,0,0,1-.523-.439l-8.9-10.931V.912ZM176.26-14.68h2.91L172.345.264a1.468,1.468,0,0,1-.586.679,1.736,1.736,0,0,1-.858.2,1.352,1.352,0,0,1-.921-.293,1.694,1.694,0,0,1-.461-.585L162.528-14.68h2.951l5.422,11.7ZM187.31-1.429h10.7V.912H186.138a1.466,1.466,0,0,1-1.13-.428,1.282,1.282,0,0,1-.4-.867v-12.98a1.318,1.318,0,0,1,.387-.888,1.459,1.459,0,0,1,1.141-.428h11.869v2.32h-10.7v4.306h10.069v2.341H187.31ZM205.541.912V-13.614a1.359,1.359,0,0,1,.377-.909,1.51,1.51,0,0,1,1.193-.428,1.763,1.763,0,0,1,.806.157,1.629,1.629,0,0,1,.534.449L217.3-3.373V-14.68h2.721V-.238a1.336,1.336,0,0,1-.094.491,1.276,1.276,0,0,1-.293.439,1.549,1.549,0,0,1-.492.324,1.747,1.747,0,0,1-.691.125,1.46,1.46,0,0,1-.8-.188,2.649,2.649,0,0,1-.523-.439l-8.9-10.931V.912ZM225.864-12.36v-2.32H240.5v2.32h-5.945V.912H231.83V-12.36ZM254,1.121A8.583,8.583,0,0,1,250.3.358a8.884,8.884,0,0,1-2.732-1.944,8.462,8.462,0,0,1-1.7-2.623,7.416,7.416,0,0,1-.586-2.8,7.106,7.106,0,0,1,.722-3.208,8.094,8.094,0,0,1,1.926-2.508,8.7,8.7,0,0,1,2.774-1.63A9.484,9.484,0,0,1,254-14.931a11.12,11.12,0,0,1,1.947.167,8.3,8.3,0,0,1,1.821.543,8.219,8.219,0,0,1,2.156,1.359,8.393,8.393,0,0,1,1.528,1.766,7.636,7.636,0,0,1,.911,2.007,7.5,7.5,0,0,1,.3,2.08,7.351,7.351,0,0,1-.722,3.261,8.433,8.433,0,0,1-1.915,2.571A8.729,8.729,0,0,1,257.261.515,8.989,8.989,0,0,1,254,1.121Zm0-2.257a5.9,5.9,0,0,0,2.292-.449,5.875,5.875,0,0,0,1.884-1.244,5.975,5.975,0,0,0,1.277-1.86,5.677,5.677,0,0,0,.471-2.32,5.532,5.532,0,0,0-.471-2.3,5.548,5.548,0,0,0-1.277-1.8,5.8,5.8,0,0,0-1.884-1.17A6.284,6.284,0,0,0,254-12.695a6.051,6.051,0,0,0-2.543.512,6.046,6.046,0,0,0-1.894,1.327,5.761,5.761,0,0,0-1.183,1.829,5.368,5.368,0,0,0-.408,2.017,5.372,5.372,0,0,0,.492,2.278,6.137,6.137,0,0,0,1.329,1.871A6.28,6.28,0,0,0,251.714-1.6,5.8,5.8,0,0,0,254-1.136Zm21.5-3.532H271.41V.912h-2.7V-13.364a1.318,1.318,0,0,1,.387-.888,1.459,1.459,0,0,1,1.141-.428h6.238a5.979,5.979,0,0,1,2.114.376,5.6,5.6,0,0,1,1.779,1.066,5.12,5.12,0,0,1,1.225,1.63,4.731,4.731,0,0,1,.45,2.069,4.722,4.722,0,0,1-.22,1.4,4.489,4.489,0,0,1-.67,1.327,4.843,4.843,0,0,1-1.13,1.1,5.4,5.4,0,0,1-1.6.752L282.881.912h-3.2Zm-4.082-2.32h5.066a3.2,3.2,0,0,0,1.193-.209,2.58,2.58,0,0,0,.879-.564,2.46,2.46,0,0,0,.544-.815,2.512,2.512,0,0,0,.188-.961,2.837,2.837,0,0,0-.188-1,2.949,2.949,0,0,0-.544-.909,2.7,2.7,0,0,0-.879-.658,2.728,2.728,0,0,0-1.193-.251H271.41Zm31.23-7.692-4.71,7.274q-.4.606-.858,1.191a10.637,10.637,0,0,0-.816,1.191q-.042.084-.115.209t-.157.251l-.094.188a.614.614,0,0,0-.073.188.858.858,0,0,0-.021.324,2.282,2.282,0,0,1,.021.3V.912h-2.7V-3.561q0-.146.01-.3a1.7,1.7,0,0,0-.01-.324.142.142,0,0,1-.042-.1A1.156,1.156,0,0,1,293-4.418l-.073-.146q-.167-.314-.345-.606a5.944,5.944,0,0,0-.408-.585q-.293-.418-.586-.826t-.565-.826l-4.71-7.274h3.077l5.087,7.922,5.045-7.922Z" transform="translate(-2.64 14.952)" fill="#1b2e45"/>
    </g>
  </g>
</svg>
