<svg xmlns="http://www.w3.org/2000/svg" width="315" height="94.134" viewBox="0 0 315 94.134">
  <g id="business-logo" transform="translate(458 2498)">
    <path id="Icon_awesome-star-of-life" data-name="Icon awesome-star-of-life" d="M39.64,28.087,28.224,21.5,39.64,14.913a1.343,1.343,0,0,0,.492-1.836L37.443,8.422a1.345,1.345,0,0,0-1.837-.492L24.19,14.517V1.344A1.344,1.344,0,0,0,22.845,0H17.467a1.344,1.344,0,0,0-1.345,1.344V14.518L4.706,7.931a1.345,1.345,0,0,0-1.837.492L.181,13.077a1.344,1.344,0,0,0,.492,1.836L12.089,21.5.673,28.087a1.344,1.344,0,0,0-.492,1.836L2.87,34.578a1.346,1.346,0,0,0,1.837.492l11.416-6.587V41.656A1.344,1.344,0,0,0,17.467,43h5.378a1.344,1.344,0,0,0,1.345-1.344V28.482l11.416,6.587a1.344,1.344,0,0,0,1.837-.492l2.689-4.655A1.343,1.343,0,0,0,39.64,28.087Z" transform="translate(-436.156 -2482)" fill="#2597e2"/>
    <g id="Rectangle_11" data-name="Rectangle 11" transform="translate(-458 -2498)" fill="none" stroke="#2597e2" stroke-width="7">
      <rect width="84" height="75" stroke="none"/>
      <rect x="3.5" y="3.5" width="77" height="68" fill="none"/>
    </g>
    <rect id="Rectangle_12" data-name="Rectangle 12" width="225" height="75" transform="translate(-368 -2498)" fill="#2597e2"/>
    <path id="Path_94" data-name="Path 94" d="M1.256,0,5.3-8.756a1.076,1.076,0,0,1,.3-.341.838.838,0,0,1,.524-.159.926.926,0,0,1,.549.134.943.943,0,0,1,.293.366L10.939,0H9.22L7.671-3.378H4.549L2.976,0ZM7.1-4.659,6.122-6.793,5.146-4.659ZM15.522,0H13.949V-9.1h1.573Zm8.022-3.256H21.167V0H19.594V-8.329a.77.77,0,0,1,.226-.518.85.85,0,0,1,.665-.25h3.634a3.479,3.479,0,0,1,1.232.22,3.263,3.263,0,0,1,1.037.622A2.987,2.987,0,0,1,27.1-7.3,2.764,2.764,0,0,1,27.362-6.1a2.759,2.759,0,0,1-.128.817,2.62,2.62,0,0,1-.39.774,2.823,2.823,0,0,1-.659.64,3.143,3.143,0,0,1-.933.439L27.85,0H25.984ZM21.167-4.61h2.951a1.86,1.86,0,0,0,.7-.122,1.5,1.5,0,0,0,.512-.329,1.435,1.435,0,0,0,.317-.476,1.468,1.468,0,0,0,.11-.561,1.657,1.657,0,0,0-.11-.585,1.721,1.721,0,0,0-.317-.53,1.572,1.572,0,0,0-.512-.384,1.587,1.587,0,0,0-.7-.146H21.167Zm24.374-1.8A6.042,6.042,0,0,0,45-7.024a3.009,3.009,0,0,0-.634-.476,3.247,3.247,0,0,0-.762-.3,3.623,3.623,0,0,0-.927-.11,3.584,3.584,0,0,0-1.482.293,3.515,3.515,0,0,0-1.11.768,3.33,3.33,0,0,0-.7,1.061,3.09,3.09,0,0,0-.238,1.171,3.158,3.158,0,0,0,.244,1.189,3.579,3.579,0,0,0,.7,1.1,3.694,3.694,0,0,0,1.11.811,3.319,3.319,0,0,0,1.47.317,4.467,4.467,0,0,0,1.049-.11,2.942,2.942,0,0,0,.811-.323,3.114,3.114,0,0,0,.659-.524,5.535,5.535,0,0,0,.567-.7l.122-.171,1.22.915-.28.317a7.849,7.849,0,0,1-.9.878,4.663,4.663,0,0,1-.939.6,4.331,4.331,0,0,1-1.061.348,6.593,6.593,0,0,1-1.25.11,5.152,5.152,0,0,1-1.9-.36,5.328,5.328,0,0,1-1.622-.994,4.887,4.887,0,0,1-1.134-1.506,4.255,4.255,0,0,1-.427-1.9,4.225,4.225,0,0,1,.183-1.22,4.522,4.522,0,0,1,.543-1.165,4.708,4.708,0,0,1,.9-1.018,5.371,5.371,0,0,1,1.262-.793,4.265,4.265,0,0,1,1.061-.323,6.889,6.889,0,0,1,1.134-.091,5.325,5.325,0,0,1,1.817.3,4.9,4.9,0,0,1,1.488.848q.085.073.2.177t.232.22q.116.116.213.232a1.116,1.116,0,0,1,.146.213l.049.1-1.146.9ZM54.527.122a4.994,4.994,0,0,1-2.152-.445,5.176,5.176,0,0,1-1.591-1.134,4.938,4.938,0,0,1-.988-1.53,4.333,4.333,0,0,1-.341-1.634,4.151,4.151,0,0,1,.421-1.872A4.722,4.722,0,0,1,51-7.957a5.066,5.066,0,0,1,1.616-.951,5.518,5.518,0,0,1,1.915-.335,6.469,6.469,0,0,1,1.134.1,4.831,4.831,0,0,1,1.061.317,4.787,4.787,0,0,1,1.256.793,4.9,4.9,0,0,1,.89,1.03,4.459,4.459,0,0,1,.53,1.171,4.383,4.383,0,0,1,.177,1.213,4.294,4.294,0,0,1-.421,1.9,4.92,4.92,0,0,1-1.116,1.5,5.084,5.084,0,0,1-1.61.988A5.23,5.23,0,0,1,54.527.122Zm0-1.317a3.431,3.431,0,0,0,1.335-.262,3.422,3.422,0,0,0,1.1-.726A3.486,3.486,0,0,0,57.7-3.268a3.316,3.316,0,0,0,.274-1.354A3.231,3.231,0,0,0,57.7-5.963a3.237,3.237,0,0,0-.744-1.049,3.38,3.38,0,0,0-1.1-.683,3.656,3.656,0,0,0-1.335-.244,3.521,3.521,0,0,0-1.482.3,3.522,3.522,0,0,0-1.1.774A3.362,3.362,0,0,0,51.252-5.8a3.136,3.136,0,0,0-.238,1.177A3.138,3.138,0,0,0,51.3-3.293,3.581,3.581,0,0,0,52.075-2.2a3.659,3.659,0,0,0,1.122.738A3.377,3.377,0,0,0,54.527-1.2ZM63.037,0V-8.476a.793.793,0,0,1,.22-.53.879.879,0,0,1,.7-.25,1.026,1.026,0,0,1,.47.091.949.949,0,0,1,.311.262l5.159,6.4V-9.1h1.585V-.671a.78.78,0,0,1-.055.287.745.745,0,0,1-.171.256.9.9,0,0,1-.287.189,1.016,1.016,0,0,1-.4.073A.85.85,0,0,1,70.1.024a1.544,1.544,0,0,1-.3-.256L64.61-6.61V0ZM79.693-9.1a5.523,5.523,0,0,1,1.9.329,5.165,5.165,0,0,1,1.6.921,4.523,4.523,0,0,1,1.116,1.427,4.075,4.075,0,0,1,.421,1.86A4.065,4.065,0,0,1,84.3-2.7a4.608,4.608,0,0,1-1.128,1.439,5.176,5.176,0,0,1-1.61.927A5.453,5.453,0,0,1,79.693,0H76.937a.853.853,0,0,1-.659-.25.749.749,0,0,1-.232-.506V-8.329a.77.77,0,0,1,.226-.518.85.85,0,0,1,.665-.25Zm0,7.732A3.622,3.622,0,0,0,81-1.6a3.557,3.557,0,0,0,1.1-.659,3.12,3.12,0,0,0,.756-1.012,2.964,2.964,0,0,0,.28-1.287,2.953,2.953,0,0,0-.28-1.293A3.181,3.181,0,0,0,82.1-6.86a3.392,3.392,0,0,0-1.091-.652,3.742,3.742,0,0,0-1.317-.232H77.62v6.378ZM88.96,0H87.387V-9.1H88.96Zm3.693-7.744V-9.1h8.524v1.354H97.714V0H96.129V-7.744ZM106.017,0h-1.573V-9.1h1.573Zm8.035.122A4.994,4.994,0,0,1,111.9-.323a5.176,5.176,0,0,1-1.591-1.134,4.938,4.938,0,0,1-.988-1.53,4.333,4.333,0,0,1-.341-1.634,4.151,4.151,0,0,1,.421-1.872,4.722,4.722,0,0,1,1.122-1.463,5.066,5.066,0,0,1,1.616-.951,5.518,5.518,0,0,1,1.915-.335,6.469,6.469,0,0,1,1.134.1,4.831,4.831,0,0,1,1.061.317,4.787,4.787,0,0,1,1.256.793,4.9,4.9,0,0,1,.89,1.03,4.459,4.459,0,0,1,.53,1.171,4.383,4.383,0,0,1,.177,1.213,4.294,4.294,0,0,1-.421,1.9,4.92,4.92,0,0,1-1.116,1.5,5.084,5.084,0,0,1-1.61.988A5.23,5.23,0,0,1,114.051.122Zm0-1.317a3.431,3.431,0,0,0,1.335-.262,3.422,3.422,0,0,0,1.1-.726,3.486,3.486,0,0,0,.744-1.085,3.316,3.316,0,0,0,.274-1.354,3.231,3.231,0,0,0-.274-1.341,3.237,3.237,0,0,0-.744-1.049,3.381,3.381,0,0,0-1.1-.683,3.656,3.656,0,0,0-1.335-.244,3.521,3.521,0,0,0-1.482.3,3.522,3.522,0,0,0-1.1.774,3.362,3.362,0,0,0-.689,1.067,3.136,3.136,0,0,0-.238,1.177,3.138,3.138,0,0,0,.287,1.329A3.581,3.581,0,0,0,111.6-2.2a3.659,3.659,0,0,0,1.122.738A3.377,3.377,0,0,0,114.051-1.2Zm8.51,1.2V-8.476a.793.793,0,0,1,.22-.53.879.879,0,0,1,.7-.25,1.026,1.026,0,0,1,.47.091.949.949,0,0,1,.311.262l5.159,6.4V-9.1H131V-.671a.78.78,0,0,1-.055.287.745.745,0,0,1-.171.256.9.9,0,0,1-.287.189,1.016,1.016,0,0,1-.4.073.85.85,0,0,1-.463-.11,1.544,1.544,0,0,1-.3-.256L124.135-6.61V0Zm14.583-1.366h6.232V0h-6.915a.853.853,0,0,1-.659-.25.749.749,0,0,1-.232-.506V-8.329a.77.77,0,0,1,.226-.518.85.85,0,0,1,.665-.25h6.915v1.354h-6.232v2.512h5.866v1.366h-5.866Zm14.51-1.89h-2.378V0H147.7V-8.329a.77.77,0,0,1,.226-.518.85.85,0,0,1,.665-.25h3.634a3.479,3.479,0,0,1,1.232.22,3.263,3.263,0,0,1,1.037.622,2.987,2.987,0,0,1,.713.951,2.764,2.764,0,0,1,.262,1.207,2.759,2.759,0,0,1-.128.817,2.62,2.62,0,0,1-.39.774,2.823,2.823,0,0,1-.659.64,3.143,3.143,0,0,1-.933.439L155.96,0h-1.866ZM149.277-4.61h2.951a1.86,1.86,0,0,0,.7-.122,1.5,1.5,0,0,0,.512-.329,1.435,1.435,0,0,0,.317-.476,1.468,1.468,0,0,0,.11-.561,1.657,1.657,0,0,0-.11-.585,1.721,1.721,0,0,0-.317-.53,1.572,1.572,0,0,0-.512-.384,1.587,1.587,0,0,0-.7-.146h-2.951ZM171.017-9.1a3.5,3.5,0,0,1,1.47.293,3.357,3.357,0,0,1,1.073.756,3.273,3.273,0,0,1,.659,1.03,2.976,2.976,0,0,1,.226,1.1,2.569,2.569,0,0,1-.3,1.238,3.086,3.086,0,0,1-.78.945,3.5,3.5,0,0,1-1.1.6,3.894,3.894,0,0,1-1.25.207h-2.756V0h-1.573V-8.329a.77.77,0,0,1,.226-.518.85.85,0,0,1,.665-.25Zm0,4.817a2.039,2.039,0,0,0,.762-.134,1.664,1.664,0,0,0,.567-.366,1.7,1.7,0,0,0,.36-.524,1.505,1.505,0,0,0,.128-.61,1.835,1.835,0,0,0-.122-.652,1.88,1.88,0,0,0-.354-.585,1.812,1.812,0,0,0-.567-.427,1.736,1.736,0,0,0-.774-.165h-2.756V-4.28ZM176.54,0l4.049-8.756a1.076,1.076,0,0,1,.3-.341.838.838,0,0,1,.524-.159.926.926,0,0,1,.549.134.943.943,0,0,1,.293.366L186.223,0H184.5l-1.549-3.378h-3.122L178.259,0Zm5.841-4.659-.976-2.134-.976,2.134Zm11.132,1.4h-2.378V0h-1.573V-8.329a.77.77,0,0,1,.226-.518.85.85,0,0,1,.665-.25h3.634a3.479,3.479,0,0,1,1.232.22,3.263,3.263,0,0,1,1.037.622,2.987,2.987,0,0,1,.713.951A2.764,2.764,0,0,1,197.33-6.1a2.759,2.759,0,0,1-.128.817,2.62,2.62,0,0,1-.39.774,2.823,2.823,0,0,1-.659.64,3.143,3.143,0,0,1-.933.439L197.818,0h-1.866ZM191.135-4.61h2.951a1.86,1.86,0,0,0,.7-.122,1.5,1.5,0,0,0,.512-.329,1.435,1.435,0,0,0,.317-.476,1.468,1.468,0,0,0,.11-.561,1.657,1.657,0,0,0-.11-.585,1.721,1.721,0,0,0-.317-.53,1.572,1.572,0,0,0-.512-.384,1.587,1.587,0,0,0-.7-.146h-2.951ZM201.34-7.744V-9.1h8.524v1.354H206.4V0h-1.585V-7.744Zm20.169-.817.134.037a.035.035,0,0,1-.024-.012.214.214,0,0,1,.061.024q.1.024.134.037l.159.049-.549,1.378-.354-.183a6.973,6.973,0,0,0-.726-.3,4.839,4.839,0,0,0-.7-.189,6.88,6.88,0,0,0-.738-.1q-.384-.03-.835-.03a7.2,7.2,0,0,0-.97.067,3.857,3.857,0,0,0-.9.226,1.9,1.9,0,0,0-.659.415.876.876,0,0,0-.256.646.714.714,0,0,0,.183.518,1.152,1.152,0,0,0,.512.287,3.492,3.492,0,0,0,.8.171q.463.049,1.024.1.451.024.957.079t1.012.159a5.81,5.81,0,0,1,.97.287,2.911,2.911,0,0,1,.817.482,2.284,2.284,0,0,1,.567.72,2.23,2.23,0,0,1,.213,1.018,1.982,1.982,0,0,1-.415,1.268,3.235,3.235,0,0,1-1.079.866,5.525,5.525,0,0,1-1.488.5,8.656,8.656,0,0,1-1.64.159q-.439,0-.823-.03a7.407,7.407,0,0,1-.75-.1q-.366-.067-.726-.165t-.762-.244q-.268-.1-.524-.2t-.524-.2l-.171-.061.707-1.28.2.11a.736.736,0,0,0,.2.085l.116.049.116.049a7.313,7.313,0,0,0,2.951.622,6.819,6.819,0,0,0,1.006-.079,4.51,4.51,0,0,0,.982-.256,2.444,2.444,0,0,0,.75-.445.838.838,0,0,0,.3-.646.862.862,0,0,0-.152-.524,1.316,1.316,0,0,0-.384-.348,1.934,1.934,0,0,0-.506-.213q-.274-.073-.53-.122a4.426,4.426,0,0,0-.573-.085q-.293-.024-.573-.061t-.573-.061q-.293-.024-.585-.061a11.18,11.18,0,0,1-1.116-.183,3.745,3.745,0,0,1-1.03-.378,2.183,2.183,0,0,1-.756-.683,1.9,1.9,0,0,1-.293-1.1,1.994,1.994,0,0,1,.384-1.232,2.988,2.988,0,0,1,1-.841,4.959,4.959,0,0,1,1.4-.482,8.346,8.346,0,0,1,1.591-.152,11.285,11.285,0,0,1,1.61.116,5.994,5.994,0,0,1,1.537.433.535.535,0,0,0,.091.037q.043.012.1.037l.073.024Zm17.106,0,.134.037a.035.035,0,0,1-.024-.012.214.214,0,0,1,.061.024q.1.024.134.037l.159.049-.549,1.378-.354-.183a6.973,6.973,0,0,0-.726-.3,4.839,4.839,0,0,0-.7-.189,6.88,6.88,0,0,0-.738-.1q-.384-.03-.835-.03a7.2,7.2,0,0,0-.97.067,3.857,3.857,0,0,0-.9.226,1.9,1.9,0,0,0-.659.415.876.876,0,0,0-.256.646.714.714,0,0,0,.183.518,1.152,1.152,0,0,0,.512.287,3.492,3.492,0,0,0,.8.171q.463.049,1.024.1.451.024.957.079t1.012.159a5.81,5.81,0,0,1,.97.287,2.911,2.911,0,0,1,.817.482,2.284,2.284,0,0,1,.567.72,2.23,2.23,0,0,1,.213,1.018,1.982,1.982,0,0,1-.415,1.268,3.235,3.235,0,0,1-1.079.866,5.525,5.525,0,0,1-1.488.5,8.656,8.656,0,0,1-1.64.159q-.439,0-.823-.03a7.407,7.407,0,0,1-.75-.1q-.366-.067-.726-.165t-.762-.244q-.268-.1-.524-.2t-.524-.2l-.171-.061.707-1.28.2.11a.736.736,0,0,0,.2.085l.116.049.116.049a7.313,7.313,0,0,0,2.951.622,6.819,6.819,0,0,0,1.006-.079,4.51,4.51,0,0,0,.982-.256,2.444,2.444,0,0,0,.75-.445.838.838,0,0,0,.3-.646.862.862,0,0,0-.152-.524,1.316,1.316,0,0,0-.384-.348,1.934,1.934,0,0,0-.506-.213q-.274-.073-.53-.122a4.426,4.426,0,0,0-.573-.085q-.293-.024-.573-.061t-.573-.061q-.293-.024-.585-.061a11.18,11.18,0,0,1-1.116-.183,3.745,3.745,0,0,1-1.03-.378,2.183,2.183,0,0,1-.756-.683,1.9,1.9,0,0,1-.293-1.1,1.994,1.994,0,0,1,.384-1.232,2.988,2.988,0,0,1,1-.841,4.959,4.959,0,0,1,1.4-.482,8.346,8.346,0,0,1,1.591-.152,11.285,11.285,0,0,1,1.61.116,5.994,5.994,0,0,1,1.537.433.535.535,0,0,0,.091.037q.043.012.1.037l.073.024Zm6.242,4.72a2.114,2.114,0,0,0,.226.97,2.635,2.635,0,0,0,.591.774,2.782,2.782,0,0,0,.841.518,2.62,2.62,0,0,0,.976.189,2.68,2.68,0,0,0,.982-.183,2.705,2.705,0,0,0,.835-.512,2.525,2.525,0,0,0,.585-.78,2.2,2.2,0,0,0,.22-.976V-9.1H251.7v5.256a3.43,3.43,0,0,1-.354,1.567,3.831,3.831,0,0,1-.939,1.2,4.292,4.292,0,0,1-1.348.774,4.593,4.593,0,0,1-1.567.274,4.3,4.3,0,0,1-1.537-.287,4.516,4.516,0,0,1-1.348-.793,4.02,4.02,0,0,1-.957-1.207,3.259,3.259,0,0,1-.366-1.53V-9.1h1.573ZM260.611-9.1a3.5,3.5,0,0,1,1.47.293,3.357,3.357,0,0,1,1.073.756,3.273,3.273,0,0,1,.659,1.03,2.976,2.976,0,0,1,.226,1.1,2.569,2.569,0,0,1-.3,1.238,3.086,3.086,0,0,1-.78.945,3.5,3.5,0,0,1-1.1.6,3.894,3.894,0,0,1-1.25.207h-2.756V0h-1.573V-8.329a.77.77,0,0,1,.226-.518.85.85,0,0,1,.665-.25Zm0,4.817a2.039,2.039,0,0,0,.762-.134,1.664,1.664,0,0,0,.567-.366,1.7,1.7,0,0,0,.36-.524,1.506,1.506,0,0,0,.128-.61,1.835,1.835,0,0,0-.122-.652,1.879,1.879,0,0,0-.354-.585,1.812,1.812,0,0,0-.567-.427,1.736,1.736,0,0,0-.774-.165h-2.756V-4.28ZM272.073-9.1a3.5,3.5,0,0,1,1.47.293,3.357,3.357,0,0,1,1.073.756,3.273,3.273,0,0,1,.659,1.03,2.976,2.976,0,0,1,.226,1.1,2.569,2.569,0,0,1-.3,1.238,3.086,3.086,0,0,1-.78.945,3.5,3.5,0,0,1-1.1.6,3.894,3.894,0,0,1-1.25.207h-2.756V0h-1.573V-8.329a.77.77,0,0,1,.226-.518.85.85,0,0,1,.665-.25Zm0,4.817a2.039,2.039,0,0,0,.762-.134,1.664,1.664,0,0,0,.567-.366,1.7,1.7,0,0,0,.36-.524,1.506,1.506,0,0,0,.128-.61,1.835,1.835,0,0,0-.122-.652,1.879,1.879,0,0,0-.354-.585,1.812,1.812,0,0,0-.567-.427,1.736,1.736,0,0,0-.774-.165h-2.756V-4.28ZM280.656-9.1v7.732h5.988V0h-6.671a.853.853,0,0,1-.659-.25.749.749,0,0,1-.232-.506V-9.1ZM291.239,0h-1.573V-9.1h1.573Zm5.4-1.366h6.232V0h-6.915a.853.853,0,0,1-.659-.25.749.749,0,0,1-.232-.506V-8.329a.77.77,0,0,1,.226-.518.85.85,0,0,1,.665-.25h6.915v1.354H296.64v2.512h5.866v1.366H296.64Zm14.51-1.89h-2.378V0H307.2V-8.329a.77.77,0,0,1,.226-.518.85.85,0,0,1,.665-.25h3.634a3.479,3.479,0,0,1,1.232.22,3.263,3.263,0,0,1,1.037.622,2.987,2.987,0,0,1,.713.951,2.764,2.764,0,0,1,.262,1.207,2.759,2.759,0,0,1-.128.817,2.62,2.62,0,0,1-.39.774,2.823,2.823,0,0,1-.659.64,3.143,3.143,0,0,1-.933.439L315.455,0h-1.866ZM308.772-4.61h2.951a1.86,1.86,0,0,0,.7-.122,1.5,1.5,0,0,0,.512-.329,1.435,1.435,0,0,0,.317-.476,1.467,1.467,0,0,0,.11-.561,1.657,1.657,0,0,0-.11-.585,1.72,1.72,0,0,0-.317-.53,1.572,1.572,0,0,0-.512-.384,1.587,1.587,0,0,0-.7-.146h-2.951Z" transform="translate(-459 -2404)" fill="#242424"/>
    <path id="Path_93" data-name="Path 93" d="M11.254-24.548H21.318L25.942,0H16.66l-.408-3.128h-6.7L8.16,0H-1.088Zm.68,15.64h3.74l-.408-4.046v-.612a7.091,7.091,0,0,1-.136-1.394v-.476q0-.51.017-.969t.119-1.581q-.408,1.8-.629,2.5t-.731,1.921l-.272.612ZM55.76-9.65A17.805,17.805,0,0,1,54.4-5.235a8.884,8.884,0,0,1-4.08,4.074A15.073,15.073,0,0,1,42.942.51q-4.76,0-7.276-1.977A6.85,6.85,0,0,1,33.15-7.195a15.812,15.812,0,0,1,.2-2.455l2.346-14.9h8.7L42.228-10.717a9.105,9.105,0,0,0-.2,1.737,1.694,1.694,0,0,0,.6,1.38,2.342,2.342,0,0,0,1.547.494,2.78,2.78,0,0,0,1.581-.443A2.623,2.623,0,0,0,46.7-8.6a8.676,8.676,0,0,0,.527-2.112L49.4-24.548H58.14Zm10.268-14.9H77.52a8.977,8.977,0,0,1,6,1.941A6.361,6.361,0,0,1,85.816-17.5a7.939,7.939,0,0,1-1.02,4.256,8.629,8.629,0,0,1-2.057,2.4A8.649,8.649,0,0,1,80.206-9.6L85.068,0H74.9L72.93-6.018l-.238-.714q-.136-.374-.323-1.037T71.978-9.18q0,1.156-.034,2.091a13.139,13.139,0,0,1-.1,1.377L70.924,0H62.118ZM73.1-13.6h1.19a2.784,2.784,0,0,0,2.006-.714,2.509,2.509,0,0,0,.748-1.9,1.514,1.514,0,0,0-.578-1.224A2.224,2.224,0,0,0,75-17.918H73.78Zm34.51-11.356q5.338,0,8.415,2.8A9.837,9.837,0,0,1,119.1-14.5a14.246,14.246,0,0,1-4.471,10.713,15.4,15.4,0,0,1-11.1,4.3q-5.3,0-8.364-2.818a9.919,9.919,0,0,1-3.06-7.674q0-.543.034-1.12t.544-3.718q.51-3.141,4.726-6.638A15.454,15.454,0,0,1,107.61-24.956Zm-6.426,14.518a3.689,3.689,0,0,0,1.207,2.3,3.6,3.6,0,0,0,2.431.833,4.734,4.734,0,0,0,3.672-1.734,6.058,6.058,0,0,0,1.53-4.148,4.041,4.041,0,0,0-.986-2.822,3.4,3.4,0,0,0-2.652-1.088,4.768,4.768,0,0,0-3.706,1.734,6.1,6.1,0,0,0-1.53,4.182Zm27.166-14.11h11.492a8.977,8.977,0,0,1,6,1.941,6.361,6.361,0,0,1,2.295,5.107,7.939,7.939,0,0,1-1.02,4.256,8.629,8.629,0,0,1-2.057,2.4A8.649,8.649,0,0,1,142.528-9.6L147.39,0H137.224l-1.972-6.018-.238-.714q-.136-.374-.323-1.037T134.3-9.18q0,1.156-.034,2.091a13.137,13.137,0,0,1-.1,1.377L133.246,0H124.44ZM135.422-13.6h1.19a2.784,2.784,0,0,0,2.006-.714,2.509,2.509,0,0,0,.748-1.9,1.514,1.514,0,0,0-.578-1.224,2.224,2.224,0,0,0-1.462-.476H136.1ZM163.3-24.548h10.064L177.99,0h-9.282L168.3-3.128h-6.7L160.208,0H150.96Zm.68,15.64h3.74l-.408-4.046v-.612a7.091,7.091,0,0,1-.136-1.394v-.476q0-.51.017-.969t.119-1.581q-.408,1.8-.629,2.5t-.731,1.921l-.272.612Z" transform="translate(-344 -2447)" fill="#fff"/>
  </g>
</svg>
