<svg xmlns="http://www.w3.org/2000/svg" width="179.058" height="49.328" viewBox="0 0 179.058 49.328">
  <g id="default" transform="translate(-22.942 2172.879)">
    <g id="Group_33" data-name="Group 33" transform="translate(0 100)">
      <g id="qosmic-inventory-logo" transform="translate(-128.829 -1106.827)">
        <path id="Path_56" data-name="Path 56" d="M80.126,50.328a1.154,1.154,0,0,1-.228-.017,3.745,3.745,0,0,0-.387-.3q-3.614-2.093-7.23-4.183a.285.285,0,0,0-.331.021q-2.88,1.67-5.761,3.339c-.65.377-1.3.761-1.946,1.142a.254.254,0,0,1-.091-.015L59.74,47.769,53.4,44.1l-6.045-3.5c-1.418-.82-2.833-1.647-4.259-2.455a.467.467,0,0,1-.267-.481q.013-5.166.008-10.331,0-6.879-.005-13.759a.4.4,0,0,1,.24-.4c.751-.42,1.5-.849,2.242-1.28q3.247-1.877,6.493-3.756,3.438-1.987,6.877-3.97c1.575-.91,3.149-1.822,4.737-2.734a.079.079,0,0,0,.042-.042s0,.005.021,0c.233-.136.448-.269.664-.4a.2.2,0,0,1,.081.014c.033.02.05.027.08.044.318.186.625.359.93.535Q67.672,3,70.109,4.412q2.278,1.315,4.558,2.628,2.725,1.574,5.449,3.151,2.631,1.519,5.266,3.03a.307.307,0,0,1,.178.309c0,1.52,0,3.041,0,4.561q0,4.672-.006,9.343,0,5.152.01,10.3a.379.379,0,0,1-.22.384c-1.31.748-2.614,1.507-3.924,2.254a.338.338,0,0,1-.277,0c-.291-.15-.57-.323-.854-.487L74.242,36.4c-.292-.169-.581-.342-.891-.525.061-.041.088-.06.116-.076,1.321-.761,2.641-1.524,3.966-2.279a.3.3,0,0,0,.18-.3c-.009-.542,0-1.085,0-1.628q0-6.7,0-13.392a.413.413,0,0,0-.239-.424c-.645-.357-1.277-.739-1.916-1.107q-3.642-2.1-7.286-4.2-1.9-1.093-3.787-2.192c-.1-.06-.189-.118-.332-.035C62.24,11.3,60.42,12.34,58.6,13.39q-2.437,1.408-4.872,2.821c-.93.538-1.858,1.077-2.791,1.61a.286.286,0,0,0-.164.291c.007.657,0,1.315,0,1.973q0,6.559-.008,13.118a.319.319,0,0,0,.19.324c.68.38,1.353.771,2.028,1.16l6.11,3.528q2.471,1.426,4.94,2.853a.265.265,0,0,0,.309,0c.914-.532,1.832-1.056,2.747-1.584,1.548-.894,3.1-1.78,4.636-2.692a.709.709,0,0,1,.824.013q3.42,1.994,6.853,3.967,3.716,2.145,7.433,4.289c.369.213.733.434,1.127.667-.785.456-1.535.892-2.287,1.326q-2.364,1.364-4.728,2.729C80.67,49.95,80.4,50.146,80.126,50.328Z" transform="translate(108.947 -1167.052)" fill="#1b2e45"/>
        <g id="Group_26" data-name="Group 26" transform="translate(162.613 -1153.501)">
          <path id="Path_63" data-name="Path 63" d="M263.344,261.47c.6-.364,1.2-.736,1.809-1.091.792-.462,1.592-.909,2.386-1.365q1.673-.96,3.344-1.924c.922-.531,1.846-1.061,2.764-1.6a.322.322,0,0,1,.378,0c1.424.825,2.855,1.638,4.28,2.46.907.524,1.807,1.061,2.714,1.586.731.422,1.471.829,2.2,1.253.38.221.747.465,1.1.719-.453.267-.888.514-1.322.761-.776.441-1.555.878-2.328,1.325-.913.528-1.82,1.069-2.733,1.6q-1.468.851-2.943,1.69c-.383.217-.778.415-1.184.617-.09-.042-.165-.076-.236-.117q-2.538-1.464-5.076-2.93Q265.92,262.964,263.344,261.47Z" transform="translate(-263.307 -255.43)" fill="#ffcb0a"/>
          <path id="Path_64" data-name="Path 64" d="M262.626,378.307c1.73.974,3.447,1.969,5.166,2.963q2.537,1.467,5.076,2.93a2.653,2.653,0,0,1,.238.139,4.8,4.8,0,0,1,.023.519q0,5.6,0,11.2a3.7,3.7,0,0,0,.045.412,2.869,2.869,0,0,1-.417-.162c-1.527-.88-3.05-1.769-4.577-2.649q-2.621-1.512-5.25-3.011a.544.544,0,0,1-.331-.547c.015-2.127,0-4.254,0-6.381q0-2.575,0-5.149A1.745,1.745,0,0,1,262.626,378.307Z" transform="translate(-262.601 -372.246)" fill="#ef671e"/>
          <path id="Path_65" data-name="Path 65" d="M475.974,397.153a1.805,1.805,0,0,1-.062-.41q0-5.6,0-11.2c0-.164,0-.328-.006-.514.388-.229.782-.426,1.166-.644q1.476-.837,2.943-1.69c.913-.529,1.82-1.069,2.733-1.6.773-.447,1.551-.884,2.328-1.325.434-.247.869-.494,1.32-.744.025.432.04.866.04,1.3q0,3.7-.007,7.392c0,1.084.005,2.169,0,3.253a.337.337,0,0,1-.14.246c-1.29.75-2.587,1.489-3.879,2.234-1.144.66-2.283,1.328-3.426,1.988C477.984,396.012,476.987,396.58,475.974,397.153Z" transform="translate(-465.382 -372.926)" fill="#ff9801"/>
        </g>
      </g>
      <g id="Group_34" data-name="Group 34" transform="translate(-1 -0.277)">
        <text id="Qosmic" transform="translate(79 -2253.602)" fill="#ff9801" font-size="11" font-family="Signal-Heavy, Signal" font-weight="800" letter-spacing="0.013em"><tspan x="0" y="0">Qosmic</tspan></text>
        <text id="Inventory" transform="translate(79 -2234.275)" fill="#1b2e45" font-size="16" font-family="Signal-Heavy, Signal" font-weight="800" letter-spacing="0.013em"><tspan x="0" y="0">Inventory</tspan></text>
      </g>
    </g>
  </g>
</svg>
